# xmcd
#
# Track frame offsets:
# 150
# 14694
# 29807
# 43454
# 64605
# 81912
# 98283
# 114982
# 133568
# 151072
# 163960
# 183142
# 197122
# 217308
#
# Disc length: 3149 seconds
#
#
# Revision: 0
# Processed by: cddbd v1.5.2PL0 Copyright (c) Steve Scherf et al.
# Submitted via: FreeRIP 2.944 
#
DISCID=c40c4b0e
DTITLE=Papa John Kolstad - Beans Taste Fine
DYEAR=2001
DGENRE=Bluegrass
TTITLE0=Beans Taste Fine
TTITLE1=Tunes Too Short
TTITLE2=Black Dog Blues
TTITLE3=Alabama Woman
TTITLE4=Takin' My Time
TTITLE5=Viper Drag
TTITLE6=Mill City Blues
TTITLE7=Born In The Desert
TTITLE8=Barnyard Dance
TTITLE9=Lady Be Good
TTITLE10=Me And The Devil
TTITLE11=Be There In The Morning
TTITLE12=Corn Likker Blues
TTITLE13=Viper Drag
EXTD=
EXTT0=
EXTT1=
EXTT2=
EXTT3=
EXTT4=
EXTT5=
EXTT6=
EXTT7=
EXTT8=
EXTT9=
EXTT10=
EXTT11=
EXTT12=
EXTT13=
PLAYORDER=
